PathFileType	4	(X/Y/Z)	c:\Git\powerlifing_model_clean\simulations\HC835B\Session1\HC835B_OGR_0006\marker_experimental.trc
DataRate	CameraRate	NumFrames	NumMarkers	Units	OrigDataRate	OrigDataStartFrame	OrigNumFrames
240.000000	240.000000	4	38	mm	240.000000	192	220
Frame#	Time	RPSI			LPSI			RASI			LASI			RTH1			RTH2			RTH3			RTH4			RSK1			RSK2			RSK3			RSK4			RCAL1			RCAL2			RCAL3			RST			RPT			RTN			RFMB			RSMB			RVMB			RFMH			RSMH			RVMH			RPM			LTH1			LTH2			LTH3			LTH4			LSK1			LSK2			LSK3			LSK4			LCAL1			LCAL2			LCAL3			LFMH			LVMH			
		X1	Y1	Z1	X2	Y2	Z2	X3	Y3	Z3	X4	Y4	Z4	X5	Y5	Z5	X6	Y6	Z6	X7	Y7	Z7	X8	Y8	Z8	X9	Y9	Z9	X10	Y10	Z10	X11	Y11	Z11	X12	Y12	Z12	X13	Y13	Z13	X14	Y14	Z14	X15	Y15	Z15	X16	Y16	Z16	X17	Y17	Z17	X18	Y18	Z18	X19	Y19	Z19	X20	Y20	Z20	X21	Y21	Z21	X22	Y22	Z22	X23	Y23	Z23	X24	Y24	Z24	X25	Y25	Z25	X26	Y26	Z26	X27	Y27	Z27	X28	Y28	Z28	X29	Y29	Z29	X30	Y30	Z30	X31	Y31	Z31	X32	Y32	Z32	X33	Y33	Z33	X34	Y34	Z34	X35	Y35	Z35	X36	Y36	Z36	X37	Y37	Z37	X38	Y38	Z38	

193	0.8	458.3666381835939	1209.448974609375	-2419.806884765625	346.6408691406251	1209.695434570313	-2425.547607421875	528.2268066406251	1137.265747070313	-2604.761962890625	292.8893737792969	1125.404052734375	-2616.28955078125	589.9672851562501	851.2404785156252	-2592.864013671875	573.9272460937501	858.4456176757815	-2651.739501953125	577.8861083984376	780.364440917969	-2637.920166015625	550.9006347656251	785.2871093750002	-2689.905517578125	518.5908203125001	336.0322875976563	-2659.326171875	524.9773559570314	331.8031005859376	-2720.593505859375	512.5755615234376	283.6173706054688	-2685.201171875	507.0721740722657	281.1637573242188	-2745.071044921875	438.6147766113282	128.326171875	-2661.757080078125	399.4152832031251	103.4674072265625	-2681.2314453125	459.4514770507814	84.72733306884767	-2670.95263671875	403.3444824218751	131.4919891357422	-2746.734130859375	494.338348388672	97.25395202636722	-2723.96826171875	427.9590148925782	153.9223937988282	-2795.921630859375	433.3181457519532	140.0501861572266	-2830.2685546875	485.4774475097657	150.5510406494141	-2829.9716796875	504.0923767089845	75.7975311279297	-2771.032470703125	429.4244689941407	118.3041763305664	-2888.086181640625	486.3426818847657	120.819938659668	-2892.699951171875	528.9137573242189	73.49161529541017	-2847.2529296875	484.8108215332032	127.668571472168	-2947.87548828125	222.1941528320313	864.566589355469	-2429.289794921875	233.5042114257813	832.0385742187502	-2479.462646484375	230.9971160888672	779.6132812500002	-2416.50830078125	255.6769409179688	749.6685180664064	-2463.316650390625	264.1606140136719	501.5970764160157	-2063.9697265625	254.7366943359376	451.7732238769532	-2082.15234375	264.8335876464844	454.0583801269532	-2033.0673828125	271.0270385742188	402.6402282714845	-2055.958740234375	331.8068542480469	417.301727294922	-1909.122314453125	311.9834594726563	403.7630310058595	-1867.496948242188	368.7541809082032	401.6699829101564	-1882.969848632813	357.7121276855469	195.7276153564454	-1958.7958984375	267.3842468261719	217.3024597167969	-1895.277465820313	
194	0.8041666666666667	459.1319274902345	1207.399291992188	-2433.192626953125	347.3652343750001	1208.1875	-2438.881591796875	528.5242309570314	1134.923950195313	-2617.796875	293.1023254394532	1124.64453125	-2629.95654296875	591.0534667968751	848.042907714844	-2603.51220703125	574.5110473632814	854.5260009765627	-2662.31787109375	578.5927734375001	776.620300292969	-2647.592041015625	551.3002319335939	780.9172363281252	-2699.4873046875	518.7599487304689	332.7806701660157	-2675.013427734375	525.3041992187501	329.7084045410157	-2736.337890625	513.0523071289064	280.7097473144532	-2701.839599609375	507.5641174316407	279.5343933105469	-2761.76708984375	439.8782958984376	124.2424545288086	-2681.632080078125	400.5086364746095	99.92900085449222	-2701.480224609375	460.5364379882814	80.73329162597658	-2692.150146484375	404.0017700195314	129.5967407226563	-2766.341796875	495.1018981933595	94.61093902587892	-2745.065673828125	428.9757080078126	153.2018585205078	-2815.606689453125	433.3273315429689	140.2248229980469	-2849.742919921875	485.7962951660157	150.6800689697266	-2850.173095703125	504.4977416992189	74.32830047607423	-2792.755126953125	428.7097473144532	120.0051422119141	-2907.787109375	485.8314514160157	122.5738830566407	-2912.949462890625	528.6129150390626	73.85991668701173	-2869.205322265625	483.6968688964845	131.1966247558594	-2967.806640625	222.4648437500001	862.5964355468752	-2444.20068359375	233.851791381836	830.281677246094	-2494.51025390625	231.085189819336	777.4864501953127	-2431.79248046875	255.8413238525391	747.7128906250001	-2478.66796875	264.7302551269532	506.3208007812501	-2075.984375	254.6616668701172	456.2435913085939	-2092.832763671875	265.1977539062501	459.7039184570314	-2043.859497070313	270.6689758300782	407.5377502441407	-2065.528076171875	332.5146789550782	425.3984375000001	-1919.42919921875	313.0595703125001	412.8708496093751	-1877.326782226563	369.6107482910157	410.1440734863282	-1893.327880859375	356.9867553710938	202.7807159423829	-1964.6318359375	267.3830261230469	226.1232604980469	-1900.622314453125	
195	0.8083333333333333	459.9165039062501	1205.029052734375	-2446.40869140625	348.0188598632813	1206.575317382813	-2452.245361328125	528.8151855468751	1132.374389648438	-2630.86865234375	293.3658142089844	1123.667358398438	-2643.495361328125	592.7942504882814	844.7545166015627	-2614.503173828125	575.4703369140626	850.5545654296877	-2673.21044921875	579.3618774414064	772.972839355469	-2657.486572265625	551.8738403320314	776.705505371094	-2709.333984375	518.7767944335939	329.4664306640626	-2690.31591796875	525.7761840820314	327.3847961425782	-2751.613037109375	513.3870849609376	277.9134216308594	-2717.97119140625	508.1790161132814	277.5777587890626	-2777.9384765625	441.4470520019532	120.5052642822266	-2700.682861328125	401.8167419433595	96.59929656982425	-2720.501708984375	462.0639038085939	77.33225250244142	-2712.317626953125	405.3689880371095	127.7737731933594	-2784.808349609375	495.9821166992189	92.16560363769533	-2765.300537109375	429.1660461425782	152.4163360595703	-2834.197265625	433.1363525390626	139.9943237304688	-2868.217041015625	485.7879943847657	150.5423431396485	-2869.030029296875	504.8636169433595	72.88470458984376	-2813.451171875	427.8535766601564	121.0486373901367	-2926.577392578125	484.902313232422	123.7686157226563	-2932.39892578125	528.0913696289064	74.08559417724611	-2890.032958984375	482.2131958007814	133.8814086914063	-2986.79443359375	222.6614837646485	860.411804199219	-2459.08056640625	234.0296020507813	828.3648681640627	-2509.524169921875	230.9845428466797	775.2434082031252	-2447.097900390625	255.7095947265626	745.5580444335939	-2494.09033203125	265.3289184570313	510.8804016113282	-2088.417724609375	254.6047821044922	460.5473632812501	-2103.906005859375	265.5644531250001	465.0434570312501	-2055.092529296875	270.4273986816407	412.1151733398439	-2075.505859375	333.2052307128907	433.4752807617189	-1930.125732421875	314.1078491210938	421.9265441894532	-1887.563720703125	370.5950317382813	418.545135498047	-1904.0859375	356.2679443359376	209.8379211425782	-1970.761962890625	267.3309936523438	234.9654693603516	-1906.491943359375	
196	0.8125	460.6863708496095	1202.4169921875	-2459.598388671875	348.7313232421876	1204.541381835938	-2465.506591796875	529.0231323242189	1129.630615234375	-2643.96435546875	293.5931396484376	1122.508422851563	-2657.036865234375	593.8940429687501	841.630798339844	-2625.45458984375	576.2816772460939	846.7928466796877	-2684.01904296875	580.0421142578126	769.4207763671877	-2667.69677734375	552.6047363281251	772.7282714843752	-2719.57470703125	518.7846679687501	326.2891845703126	-2705.221435546875	526.1980590820314	325.0646667480469	-2766.492919921875	513.6264648437501	275.0151672363282	-2733.656494140625	508.7188415527345	275.6325988769532	-2793.626708984375	443.174530029297	117.2276687622071	-2718.8818359375	403.340545654297	93.37033843994142	-2738.471923828125	463.8137817382814	74.14002990722658	-2731.4423828125	406.1329040527345	125.6893157958985	-2802.372802734375	496.9703369140626	89.91141510009767	-2784.56298828125	429.2872314453126	152.1928863525391	-2852.49853515625	432.0136108398439	139.1111907958985	-2885.274658203125	485.4106750488282	150.0863494873047	-2887.013671875	505.407684326172	71.53042602539064	-2833.161376953125	426.787811279297	121.5023803710938	-2944.260009765625	483.8205871582032	124.5307388305664	-2950.868896484375	527.6312866210939	74.10105895996095	-2909.93896484375	480.3757324218751	135.7364807128907	-3004.994140625	222.7526855468751	858.0351562500002	-2473.90673828125	234.0065155029297	826.201843261719	-2524.5078125	230.7846832275391	772.752624511719	-2462.362060546875	255.2516784667969	743.3356933593751	-2509.640380859375	265.8378906250001	515.2402954101564	-2101.267333984375	254.5602264404297	464.6624755859376	-2115.393310546875	265.8723449707032	470.2954101562501	-2066.810546875	270.1130371093751	416.6936950683595	-2085.887451171875	333.9407653808594	441.5066223144532	-1941.312133789063	315.1084899902344	431.0036621093751	-1898.340942382813	371.5674743652344	426.8382873535157	-1915.27392578125	355.5061950683594	216.8923034667969	-1977.206665039063	267.2057800292969	243.8496093750001	-1912.840698242188	
